<svg width="235" height="235" viewBox="0 0 235 235" fill="none" xmlns="http://www.w3.org/2000/svg">
<path d="M156.802 21.3911C142.45 15.3672 126.92 12.6743 111.378 13.5147C95.8355 14.355 80.6861 18.7068 67.0675 26.243C53.449 33.7792 41.7154 44.3039 32.7486 57.0261C23.7818 69.7484 17.8149 84.3374 15.2962 99.6969L58.1532 106.725C59.6099 97.8414 63.0609 89.4038 68.247 82.0458C73.433 74.6879 80.2191 68.6009 88.0955 64.2423C95.9718 59.8837 104.734 57.3668 113.722 56.8808C122.711 56.3948 131.693 57.9522 139.994 61.4361L156.802 21.3911Z" fill="#E94436" fill-opacity="0.5"/>
<path d="M162.923 24.895C185.631 35.8094 203.551 54.6685 213.293 77.9041C223.035 101.14 223.922 127.14 215.787 150.986L174.683 136.963C179.388 123.172 178.875 108.134 173.241 94.6961C167.607 81.2576 157.243 70.3504 144.109 64.038L162.923 24.895Z" fill="#FABC05" fill-opacity="0.5"/>
<path d="M215.063 155.877C206.289 180.013 188.815 200.001 166.067 211.92C143.319 223.84 116.939 226.832 92.1002 220.309L103.131 178.304C117.497 182.076 132.753 180.346 145.91 173.452C159.066 166.558 169.172 154.998 174.247 141.039L215.063 155.877Z" fill="#109D58" fill-opacity="0.5"/>
<path d="M86.4059 216.584C63.4357 209.51 43.6626 194.626 30.5106 174.509C17.3585 154.392 11.6557 130.309 14.3897 106.43L57.5372 111.37C55.956 125.181 59.2543 139.109 66.8608 150.744C74.4674 162.379 85.9033 170.987 99.1882 175.079L86.4059 216.584Z" fill="#4385F3" fill-opacity="0.5"/>
</svg>
