<svg width="124" height="125" viewBox="0 0 124 125" fill="none" xmlns="http://www.w3.org/2000/svg">
<rect width="124" height="125" fill="white"/>
<path d="M116.635 45.4211C112.845 38.5586 107.548 32.6444 101.143 28.1229C94.7383 23.6015 87.3921 20.5904 79.6565 19.3158C71.9208 18.0413 63.9969 18.5365 56.4802 20.7642C48.9634 22.9919 42.0493 26.8942 36.2573 32.1779L51.0001 48.3391C54.3499 45.2832 58.3487 43.0263 62.6961 41.7379C67.0434 40.4495 71.6263 40.1631 76.1002 40.9002C80.5741 41.6374 84.8229 43.3789 88.5271 45.9939C92.2313 48.6089 95.2947 52.0294 97.4871 55.9983L116.635 45.4211Z" fill="#E94436" fill-opacity="0.5"/>
<path d="M117.96 48.7173C123.526 60.1223 124.719 73.1719 121.313 85.397C117.907 97.6221 110.138 108.175 99.4759 115.058L87.6105 96.6804C93.7768 92.6993 98.27 86.5961 100.24 79.5257C102.21 72.4552 101.52 64.9079 98.3009 58.3118L117.96 48.7173Z" fill="#FABC05" fill-opacity="0.5"/>
<path d="M97.6624 116.765C86.6575 123.564 73.5096 126.006 60.7972 123.613C48.0848 121.22 36.7249 114.165 28.9452 103.83L46.4223 90.6737C50.9217 96.6508 57.4917 100.732 64.844 102.116C72.1963 103.5 79.8004 102.087 86.1652 98.155L97.6624 116.765Z" fill="#109D58" fill-opacity="0.5"/>
<path d="M27.8577 100.579C20.9888 90.6104 17.8225 78.5532 18.907 66.4955C19.9914 54.4379 25.2585 43.1392 33.796 34.5558L49.3056 49.9827C44.3679 54.9469 41.3216 61.4815 40.6944 68.4551C40.0672 75.4287 41.8985 82.4021 45.8712 88.1677L27.8577 100.579Z" fill="#4385F3" fill-opacity="0.5"/>
<path d="M-3.05176e-05 24C-3.05176e-05 10.7452 10.7451 0 24 0H46C59.2548 0 70 10.7452 70 24V58C70 71.2548 59.2548 82 46 82H24C10.7451 82 -3.05176e-05 71.2548 -3.05176e-05 58V24Z" fill="white"/>
</svg>
