<svg width="45" height="13" viewBox="0 0 45 13" fill="none" xmlns="http://www.w3.org/2000/svg">
<path d="M11.7632 0.925141C11.998 0.779792 12.0705 0.471625 11.9251 0.236831C11.7798 0.00203638 11.4716 -0.0704734 11.2368 0.0748753L0.744278 6.57026C0.720422 6.58449 0.697851 6.60064 0.676779 6.61851C0.656079 6.63605 0.636967 6.65513 0.619568 6.67554C0.545013 6.76287 0.5 6.87618 0.5 7.00001L0.50003 7.00552C0.501373 7.12982 0.548073 7.24324 0.624362 7.33001C0.641404 7.34942 0.659997 7.36755 0.680014 7.38422C0.70972 7.40899 0.742342 7.43038 0.777291 7.44779L11.268 12.9429C11.5126 13.0711 11.8148 12.9766 11.9429 12.732C12.071 12.4874 11.9766 12.1852 11.732 12.0571L3.03212 7.50001L44 7.5C44.2761 7.5 44.5 7.27615 44.5 7C44.5 6.72386 44.2761 6.5 44 6.5L2.75762 6.50001L11.7632 0.925141Z" fill="black"/>
</svg>
