<svg width="45" height="13" viewBox="0 0 45 13" fill="none" xmlns="http://www.w3.org/2000/svg">
<path d="M11.7632 0.925202C11.998 0.779853 12.0705 0.471686 11.9251 0.236892C11.7798 0.00209741 11.4716 -0.0704124 11.2368 0.0749364L0.744278 6.57032C0.720422 6.58455 0.697851 6.6007 0.676779 6.61857C0.656079 6.63611 0.636967 6.65519 0.619568 6.6756C0.545013 6.76293 0.5 6.87624 0.5 7.00007L0.50003 7.00558C0.501373 7.12988 0.548073 7.2433 0.624362 7.33007C0.641404 7.34948 0.659997 7.36761 0.680014 7.38428C0.70972 7.40905 0.742342 7.43044 0.777291 7.44785L11.268 12.943C11.5126 13.0711 11.8148 12.9767 11.9429 12.7321C12.071 12.4875 11.9766 12.1853 11.732 12.0572L3.03212 7.50007L44 7.50006C44.2761 7.50006 44.5 7.27621 44.5 7.00006C44.5 6.72392 44.2761 6.50006 44 6.50006L2.75762 6.50007L11.7632 0.925202Z" fill="white"/>
</svg>
