<svg width="101" height="85" viewBox="0 0 101 85" fill="none" xmlns="http://www.w3.org/2000/svg">
<path d="M0.535414 83.5013C0.259965 83.4817 0.0208142 83.6891 0.00125572 83.9646C-0.0183028 84.24 0.189137 84.4792 0.464586 84.4987L0.535414 83.5013ZM98.5 0L94.8389 4.46429L100.536 5.40273L98.5 0ZM4.42968 84.6682C4.70579 84.6726 4.9332 84.4524 4.93762 84.1763C4.94204 83.9002 4.7218 83.6727 4.44569 83.6683L4.42968 84.6682ZM12.3336 83.4181C12.0583 83.4393 11.8522 83.6796 11.8734 83.955C11.8945 84.2303 12.1349 84.4363 12.4102 84.4152L12.3336 83.4181ZM20.3039 83.4775C20.5765 83.4338 20.7622 83.1774 20.7185 82.9047C20.6748 82.632 20.4184 82.4464 20.1457 82.4901L20.3039 83.4775ZM27.8717 80.9356C27.6033 81.0008 27.4386 81.2711 27.5037 81.5394C27.5688 81.8078 27.8392 81.9725 28.1075 81.9074L27.8717 80.9356ZM35.7639 79.7246C36.0263 79.6384 36.169 79.3558 36.0828 79.0935C35.9965 78.8311 35.714 78.6884 35.4516 78.7746L35.7639 79.7246ZM42.8316 76.012C42.5772 76.1193 42.458 76.4126 42.5653 76.667C42.6726 76.9214 42.9659 77.0407 43.2203 76.9333L42.8316 76.012ZM50.4204 73.5328C50.6649 73.4043 50.7589 73.102 50.6305 72.8576C50.502 72.6131 50.1997 72.5191 49.9553 72.6475L50.4204 73.5328ZM56.7623 68.6831C56.5301 68.8324 56.4629 69.1418 56.6122 69.3741C56.7616 69.6063 57.071 69.6735 57.3032 69.5242L56.7623 68.6831ZM63.8055 64.9159C64.0234 64.7462 64.0623 64.432 63.8926 64.2142C63.7229 63.9964 63.4087 63.9574 63.1909 64.1271L63.8055 64.9159ZM69.169 59.0098C68.9677 59.1989 68.9578 59.5153 69.1469 59.7165C69.336 59.9178 69.6524 59.9277 69.8537 59.7386L69.169 59.0098ZM75.3966 54.0261C75.5795 53.8193 75.5601 53.5033 75.3533 53.3204C75.1464 53.1374 74.8304 53.1568 74.6475 53.3637L75.3966 54.0261ZM79.5923 47.226C79.4291 47.4487 79.4772 47.7616 79.7 47.9249C79.9227 48.0881 80.2356 48.04 80.3988 47.8172L79.5923 47.226ZM84.811 41.2C84.9539 40.9638 84.8783 40.6564 84.642 40.5134C84.4057 40.3705 84.0983 40.4461 83.9554 40.6824L84.811 41.2ZM87.7456 33.7687C87.6231 34.0162 87.7245 34.3162 87.9719 34.4387C88.2194 34.5612 88.5194 34.4599 88.6419 34.2124L87.7456 33.7687ZM91.8792 26.9559C91.9818 26.6995 91.8571 26.4085 91.6007 26.3059C91.3443 26.2034 91.0533 26.3281 90.9508 26.5844L91.8792 26.9559ZM93.6092 19.1457C93.5257 19.409 93.6715 19.69 93.9347 19.7734C94.198 19.8569 94.479 19.7111 94.5624 19.4478L93.6092 19.1457ZM96.7021 11.7969C96.7676 11.5287 96.6032 11.2581 96.3349 11.1926C96.0667 11.1271 95.7961 11.2915 95.7306 11.5598L96.7021 11.7969ZM97.3585 3.85361C97.3096 4.1254 97.4904 4.38533 97.7621 4.43419C98.0339 4.48305 98.2939 4.30233 98.3427 4.03055L97.3585 3.85361ZM0.464586 84.4987C1.72779 84.5884 3.05183 84.6461 4.42968 84.6682L4.44569 83.6683C3.08542 83.6466 1.77968 83.5896 0.535414 83.5013L0.464586 84.4987ZM12.4102 84.4152C14.9409 84.2207 17.5822 83.9135 20.3039 83.4775L20.1457 82.4901C17.4513 82.9217 14.8372 83.2257 12.3336 83.4181L12.4102 84.4152ZM28.1075 81.9074C30.6257 81.2963 33.1848 80.5725 35.7639 79.7246L35.4516 78.7746C32.8985 79.6139 30.3649 80.3306 27.8717 80.9356L28.1075 81.9074ZM43.2203 76.9333C45.6261 75.9184 48.0317 74.7879 50.4204 73.5328L49.9553 72.6475C47.5924 73.8891 45.2123 75.0076 42.8316 76.012L43.2203 76.9333ZM57.3032 69.5242C59.5047 68.1085 61.6768 66.5748 63.8055 64.9159L63.1909 64.1271C61.0866 65.767 58.9391 67.2832 56.7623 68.6831L57.3032 69.5242ZM69.8537 59.7386C71.7551 57.9524 73.6066 56.0503 75.3966 54.0261L74.6475 53.3637C72.8782 55.3644 71.0483 57.2444 69.169 59.0098L69.8537 59.7386ZM80.3988 47.8172C81.9347 45.7223 83.4084 43.5181 84.811 41.2L83.9554 40.6824C82.5681 42.9752 81.1108 45.1548 79.5923 47.226L80.3988 47.8172ZM88.6419 34.2124C89.7898 31.8933 90.8712 29.4756 91.8792 26.9559L90.9508 26.5844C89.9524 29.08 88.8818 31.4735 87.7456 33.7687L88.6419 34.2124ZM94.5624 19.4478C95.343 16.985 96.0579 14.4356 96.7021 11.7969L95.7306 11.5598C95.0916 14.177 94.3828 16.7047 93.6092 19.1457L94.5624 19.4478Z" fill="#BBBBBB"/>
</svg>
