<svg width="102" height="85" viewBox="0 0 102 85" fill="none" xmlns="http://www.w3.org/2000/svg">
<path d="M100.965 83.5013C101.24 83.4817 101.479 83.6891 101.499 83.9646C101.518 84.24 101.311 84.4792 101.035 84.4987L100.965 83.5013ZM3 0L6.66107 4.46429L0.964348 5.40273L3 0ZM97.0703 84.6682C96.7942 84.6726 96.5668 84.4524 96.5624 84.1763C96.558 83.9002 96.7782 83.6727 97.0543 83.6683L97.0703 84.6682ZM89.1664 83.4181C89.4417 83.4393 89.6478 83.6796 89.6266 83.955C89.6055 84.2303 89.3651 84.4363 89.0898 84.4152L89.1664 83.4181ZM81.1961 83.4775C80.9235 83.4338 80.7378 83.1774 80.7815 82.9047C80.8252 82.632 81.0816 82.4464 81.3543 82.4901L81.1961 83.4775ZM73.6283 80.9356C73.8967 81.0008 74.0614 81.2711 73.9963 81.5394C73.9312 81.8078 73.6608 81.9725 73.3925 81.9074L73.6283 80.9356ZM65.7361 79.7246C65.4737 79.6384 65.331 79.3558 65.4172 79.0935C65.5035 78.8311 65.786 78.6884 66.0484 78.7746L65.7361 79.7246ZM58.6684 76.012C58.9228 76.1193 59.042 76.4126 58.9347 76.667C58.8274 76.9214 58.5341 77.0407 58.2797 76.9333L58.6684 76.012ZM51.0796 73.5328C50.8351 73.4043 50.7411 73.102 50.8695 72.8576C50.998 72.6131 51.3003 72.5191 51.5447 72.6475L51.0796 73.5328ZM44.7377 68.6831C44.9699 68.8324 45.0371 69.1418 44.8878 69.3741C44.7384 69.6063 44.429 69.6735 44.1968 69.5242L44.7377 68.6831ZM37.6945 64.9159C37.4766 64.7462 37.4377 64.432 37.6074 64.2142C37.7771 63.9964 38.0913 63.9574 38.3091 64.1271L37.6945 64.9159ZM32.331 59.0098C32.5323 59.1989 32.5422 59.5153 32.3531 59.7165C32.164 59.9178 31.8476 59.9277 31.6463 59.7386L32.331 59.0098ZM26.1034 54.0261C25.9205 53.8193 25.9399 53.5033 26.1467 53.3204C26.3536 53.1374 26.6696 53.1568 26.8525 53.3637L26.1034 54.0261ZM21.9077 47.226C22.0709 47.4487 22.0228 47.7616 21.8 47.9249C21.5773 48.0881 21.2644 48.04 21.1012 47.8172L21.9077 47.226ZM16.689 41.2C16.5461 40.9638 16.6217 40.6564 16.858 40.5134C17.0943 40.3705 17.4017 40.4461 17.5446 40.6824L16.689 41.2ZM13.7544 33.7687C13.8769 34.0162 13.7755 34.3162 13.5281 34.4387C13.2806 34.5612 12.9806 34.4599 12.8581 34.2124L13.7544 33.7687ZM9.62077 26.9559C9.5182 26.6995 9.6429 26.4085 9.89929 26.3059C10.1557 26.2034 10.4467 26.3281 10.5492 26.5844L9.62077 26.9559ZM7.89085 19.1457C7.97427 19.409 7.8285 19.69 7.56526 19.7734C7.30202 19.8569 7.021 19.7111 6.93757 19.4478L7.89085 19.1457ZM4.79794 11.7969C4.73244 11.5287 4.89683 11.2581 5.16508 11.1926C5.43335 11.1271 5.70392 11.2915 5.76941 11.5598L4.79794 11.7969ZM4.14149 3.85361C4.19036 4.1254 4.00964 4.38533 3.73785 4.43419C3.46607 4.48305 3.20614 4.30233 3.15728 4.03055L4.14149 3.85361ZM101.035 84.4987C99.7722 84.5884 98.4482 84.6461 97.0703 84.6682L97.0543 83.6683C98.4146 83.6466 99.7203 83.5896 100.965 83.5013L101.035 84.4987ZM89.0898 84.4152C86.5591 84.2207 83.9178 83.9135 81.1961 83.4775L81.3543 82.4901C84.0487 82.9217 86.6628 83.2257 89.1664 83.4181L89.0898 84.4152ZM73.3925 81.9074C70.8743 81.2963 68.3152 80.5725 65.7361 79.7246L66.0484 78.7746C68.6015 79.6139 71.1351 80.3306 73.6283 80.9356L73.3925 81.9074ZM58.2797 76.9333C55.8739 75.9184 53.4683 74.7879 51.0796 73.5328L51.5447 72.6475C53.9076 73.8891 56.2877 75.0076 58.6684 76.012L58.2797 76.9333ZM44.1968 69.5242C41.9953 68.1085 39.8232 66.5748 37.6945 64.9159L38.3091 64.1271C40.4134 65.767 42.5609 67.2832 44.7377 68.6831L44.1968 69.5242ZM31.6463 59.7386C29.7449 57.9524 27.8934 56.0503 26.1034 54.0261L26.8525 53.3637C28.6218 55.3644 30.4517 57.2444 32.331 59.0098L31.6463 59.7386ZM21.1012 47.8172C19.5653 45.7223 18.0916 43.5181 16.689 41.2L17.5446 40.6824C18.9319 42.9752 20.3892 45.1548 21.9077 47.226L21.1012 47.8172ZM12.8581 34.2124C11.7102 31.8933 10.6288 29.4756 9.62077 26.9559L10.5492 26.5844C11.5476 29.08 12.6182 31.4735 13.7544 33.7687L12.8581 34.2124ZM6.93757 19.4478C6.15704 16.985 5.44215 14.4356 4.79794 11.7969L5.76941 11.5598C6.40838 14.177 7.11723 16.7047 7.89085 19.1457L6.93757 19.4478Z" fill="#BBBBBB"/>
</svg>
