<svg width="129" height="61" viewBox="0 0 129 61" fill="none" xmlns="http://www.w3.org/2000/svg">
<path d="M127.517 60.6275C127.587 60.8945 127.86 61.0539 128.127 60.9836C128.394 60.9132 128.554 60.6397 128.483 60.3727L127.517 60.6275ZM0 4.50007L5.38745 6.57581L4.49137 0.872273L0 4.50007ZM3.89148 4.3948C4.16464 4.35431 4.35325 4.10005 4.31276 3.82689C4.27227 3.55373 4.01801 3.36512 3.74485 3.40561L3.89148 4.3948ZM11.3387 2.41812C11.0643 2.44871 10.8666 2.69599 10.8972 2.97043C10.9278 3.24487 11.1751 3.44256 11.4495 3.41197L11.3387 2.41812ZM19.0383 2.7144C19.3137 2.69458 19.5209 2.45524 19.5011 2.17981C19.4813 1.90438 19.242 1.69716 18.9665 1.71698L19.0383 2.7144ZM26.6185 1.32743C26.3424 1.33553 26.1252 1.56586 26.1333 1.84188C26.1414 2.11791 26.3718 2.3351 26.6478 2.327L26.6185 1.32743ZM34.2633 2.27656C34.5394 2.28118 34.767 2.0611 34.7716 1.785C34.7762 1.50889 34.5561 1.28132 34.28 1.2767L34.2633 2.27656ZM41.9314 1.5933C41.6559 1.5749 41.4176 1.78335 41.3992 2.05888C41.3808 2.33441 41.5893 2.57268 41.8648 2.59108L41.9314 1.5933ZM49.427 3.29879C49.7011 3.33204 49.9503 3.13677 49.9835 2.86263C50.0168 2.5885 49.8215 2.33932 49.5474 2.30607L49.427 3.29879ZM57.1477 3.45229C56.876 3.40301 56.6158 3.58332 56.5665 3.85503C56.5172 4.12674 56.6976 4.38695 56.9693 4.43623L57.1477 3.45229ZM64.4165 6.02886C64.6845 6.09523 64.9556 5.93174 65.022 5.66369C65.0883 5.39564 64.9248 5.12454 64.6568 5.05817L64.4165 6.02886ZM72.0197 7.14515C71.7568 7.06079 71.4752 7.20556 71.3909 7.46851C71.3065 7.73145 71.4513 8.01299 71.7142 8.09735L72.0197 7.14515ZM78.8847 10.6859C79.1408 10.7891 79.4321 10.6652 79.5354 10.4091C79.6386 10.153 79.5147 9.86167 79.2586 9.75842L78.8847 10.6859ZM86.2479 12.8901C86.0005 12.7675 85.7005 12.8687 85.5779 13.1162C85.4553 13.3636 85.5565 13.6636 85.804 13.7862L86.2479 12.8901ZM92.4868 17.4398C92.7235 17.582 93.0307 17.5055 93.173 17.2689C93.3152 17.0322 93.2387 16.725 93.0021 16.5827L92.4868 17.4398ZM99.4135 20.8145C99.1898 20.6527 98.8772 20.7029 98.7154 20.9267C98.5536 21.1505 98.6038 21.463 98.8276 21.6249L99.4135 20.8145ZM104.778 26.3378C104.987 26.5187 105.303 26.4961 105.484 26.2875C105.664 26.0788 105.642 25.763 105.433 25.5821L104.778 26.3378ZM111.005 30.8721C110.813 30.673 110.497 30.6667 110.298 30.858C110.099 31.0493 110.092 31.3658 110.284 31.565L111.005 30.8721ZM115.282 37.2832C115.454 37.4996 115.768 37.5358 115.985 37.3642C116.201 37.1926 116.237 36.8781 116.066 36.6618L115.282 37.2832ZM120.545 42.9201C120.395 42.6877 120.086 42.6203 119.854 42.7695C119.621 42.9187 119.554 43.228 119.703 43.4604L120.545 42.9201ZM123.454 50.0495C123.577 50.2967 123.877 50.3972 124.124 50.2741C124.372 50.1509 124.472 49.8507 124.349 49.6036L123.454 50.0495ZM127.357 56.701C127.267 56.4402 126.982 56.3025 126.721 56.3933C126.46 56.4841 126.322 56.7692 126.413 57.0299L127.357 56.701ZM11.4495 3.41197C14.0295 3.12444 16.5589 2.89276 19.0383 2.7144L18.9665 1.71698C16.4739 1.89629 13.9315 2.12917 11.3387 2.41812L11.4495 3.41197ZM26.6478 2.327C29.2447 2.25078 31.7829 2.23508 34.2633 2.27656L34.28 1.2767C31.784 1.23496 29.2304 1.25077 26.6185 1.32743L26.6478 2.327ZM41.8648 2.59108C44.4533 2.76387 46.9736 3.00123 49.427 3.29879L49.5474 2.30607C47.0758 2.00631 44.5376 1.76727 41.9314 1.5933L41.8648 2.59108ZM56.9693 4.43623C59.5313 4.90094 62.0131 5.4338 64.4165 6.02886L64.6568 5.05817C62.2328 4.45798 59.7303 3.92072 57.1477 3.45229L56.9693 4.43623ZM71.7142 8.09735C74.1976 8.89409 76.587 9.75963 78.8847 10.6859L79.2586 9.75842C76.9382 8.82304 74.5261 7.94926 72.0197 7.14515L71.7142 8.09735ZM85.804 13.7862C88.1398 14.9435 90.3663 16.165 92.4868 17.4398L93.0021 16.5827C90.8584 15.294 88.6081 14.0595 86.2479 12.8901L85.804 13.7862ZM98.8276 21.6249C100.936 23.1493 102.918 24.7253 104.778 26.3378L105.433 25.5821C103.551 23.9506 101.546 22.3564 99.4135 20.8145L98.8276 21.6249ZM110.284 31.565C112.096 33.4516 113.76 35.3648 115.282 37.2832L116.066 36.6618C114.524 34.7189 112.84 32.7819 111.005 30.8721L110.284 31.565ZM119.703 43.4604C121.136 45.6928 122.383 47.9007 123.454 50.0495L124.349 49.6036C123.262 47.4222 121.997 45.1829 120.545 42.9201L119.703 43.4604ZM126.413 57.0299C126.845 58.2712 127.212 59.4733 127.517 60.6275L128.483 60.3727C128.172 59.1924 127.798 57.9656 127.357 56.701L126.413 57.0299Z" fill="#BBBBBB"/>
</svg>
