<svg width="149" height="67" viewBox="0 0 149 67" fill="none" xmlns="http://www.w3.org/2000/svg">
<path d="M1.08642 61.7126C0.814436 61.6649 0.555255 61.8467 0.507526 62.1186C0.459796 62.3906 0.641591 62.6498 0.913577 62.6975L1.08642 61.7126ZM149 0L143.634 2.12999L148.161 5.71229L149 0ZM4.92619 63.3729C5.19881 63.4168 5.45542 63.2314 5.49933 62.9588C5.54323 62.6861 5.35782 62.4295 5.08519 62.3856L4.92619 63.3729ZM12.8765 63.5262C12.6027 63.4902 12.3516 63.683 12.3156 63.9568C12.2796 64.2306 12.4724 64.4817 12.7462 64.5177L12.8765 63.5262ZM20.7226 65.4371C20.9974 65.4642 21.2421 65.2635 21.2693 64.9887C21.2964 64.7139 21.0956 64.4691 20.8208 64.442L20.7226 65.4371ZM28.7551 65.0872C28.4795 65.0697 28.2419 65.2789 28.2245 65.5545C28.207 65.8301 28.4162 66.0677 28.6918 66.0852L28.7551 65.0872ZM36.6483 66.4392C36.9244 66.4461 37.1537 66.2279 37.1606 65.9518C37.1675 65.6758 36.9494 65.4464 36.6733 65.4395L36.6483 66.4392ZM44.5834 65.4736C44.3073 65.4783 44.0873 65.706 44.092 65.9821C44.0967 66.2582 44.3243 66.4782 44.6004 66.4735L44.5834 65.4736ZM52.5492 66.1572C52.8248 66.1397 53.0341 65.9022 53.0166 65.6266C52.9991 65.351 52.7616 65.1417 52.486 65.1592L52.5492 66.1572ZM60.3962 64.4581C60.1219 64.4896 59.925 64.7375 59.9565 65.0119C59.988 65.2862 60.236 65.4831 60.5103 65.4516L60.3962 64.4581ZM68.421 64.3205C68.6931 64.2737 68.8757 64.0151 68.8288 63.7429C68.782 63.4708 68.5234 63.2882 68.2513 63.335L68.421 64.3205ZM76.0129 61.7548C75.7441 61.8184 75.5778 62.0877 75.6413 62.3564C75.7048 62.6252 75.9741 62.7915 76.2429 62.728L76.0129 61.7548ZM83.9646 60.6303C84.2284 60.5488 84.3763 60.2689 84.2948 60.005C84.2134 59.7412 83.9335 59.5933 83.6696 59.6748L83.9646 60.6303ZM91.1681 57.0605C90.9109 57.161 90.7838 57.451 90.8843 57.7082C90.9848 57.9654 91.2747 58.0924 91.532 57.992L91.1681 57.0605ZM98.8697 54.7929C99.1183 54.6726 99.2223 54.3736 99.102 54.125C98.9818 53.8765 98.6828 53.7724 98.4342 53.8927L98.8697 54.7929ZM105.4 50.1636C105.162 50.3039 105.083 50.6104 105.224 50.8483C105.364 51.0861 105.671 51.1652 105.908 51.0248L105.4 50.1636ZM112.621 46.6679C112.846 46.5077 112.898 46.1955 112.738 45.9705C112.578 45.7456 112.266 45.6931 112.041 45.8533L112.621 46.6679ZM118.283 40.9837C118.073 41.1629 118.048 41.4785 118.227 41.6886C118.407 41.8987 118.722 41.9237 118.932 41.7445L118.283 40.9837ZM124.789 36.2905C124.982 36.0938 124.98 35.7772 124.783 35.5835C124.586 35.3897 124.27 35.3922 124.076 35.589L124.789 36.2905ZM129.373 29.7315C129.196 29.9439 129.225 30.2592 129.438 30.4356C129.65 30.6121 129.965 30.583 130.142 30.3706L129.373 29.7315ZM135.006 24.0105C135.165 23.7847 135.111 23.4728 134.885 23.3138C134.659 23.1548 134.347 23.2089 134.188 23.4347L135.006 24.0105ZM138.507 16.7999C138.365 17.0364 138.441 17.3437 138.678 17.4863C138.914 17.6288 139.221 17.5526 139.364 17.3161L138.507 16.7999ZM143.301 10.33C143.43 10.0862 143.338 9.78344 143.094 9.65385C142.85 9.52426 142.547 9.61688 142.418 9.86072L143.301 10.33ZM146.143 2.81475C146.007 3.05496 146.091 3.36011 146.331 3.49633C146.571 3.63256 146.877 3.54826 147.013 3.30806L146.143 2.81475ZM0.913577 62.6975C2.26372 62.9345 3.60121 63.1595 4.92619 63.3729L5.08519 62.3856C3.76489 62.173 2.43201 61.9487 1.08642 61.7126L0.913577 62.6975ZM12.7462 64.5177C15.4602 64.8742 18.1186 65.18 20.7226 65.4371L20.8208 64.442C18.2277 64.1859 15.58 63.8814 12.8765 63.5262L12.7462 64.5177ZM28.6918 66.0852C31.4065 66.2573 34.0581 66.3744 36.6483 66.4392L36.6733 65.4395C34.0962 65.375 31.4573 65.2585 28.7551 65.0872L28.6918 66.0852ZM44.6004 66.4735C47.3224 66.4272 49.9713 66.3205 52.5492 66.1572L52.486 65.1592C49.9238 65.3215 47.2903 65.4276 44.5834 65.4736L44.6004 66.4735ZM60.5103 65.4516C63.2326 65.1389 65.8685 64.7601 68.421 64.3205L68.2513 63.335C65.7176 63.7714 63.1002 64.1475 60.3962 64.4581L60.5103 65.4516ZM76.2429 62.728C78.9169 62.096 81.4894 61.3943 83.9646 60.6303L83.6696 59.6748C81.2162 60.4321 78.6654 61.128 76.0129 61.7548L76.2429 62.728ZM91.532 57.992C94.0942 56.991 96.5381 55.921 98.8697 54.7929L98.4342 53.8927C96.126 55.0095 93.706 56.069 91.1681 57.0605L91.532 57.992ZM105.908 51.0248C108.278 49.6267 110.513 48.1692 112.621 46.6679L112.041 45.8533C109.956 47.3383 107.745 48.7802 105.4 50.1636L105.908 51.0248ZM118.932 41.7445C121.032 39.9539 122.979 38.1283 124.789 36.2905L124.076 35.589C122.286 37.407 120.36 39.2127 118.283 40.9837L118.932 41.7445ZM130.142 30.3706C131.927 28.2216 133.542 26.0893 135.006 24.0105L134.188 23.4347C132.738 25.4937 131.14 27.6047 129.373 29.7315L130.142 30.3706ZM139.364 17.3161C140.882 14.7967 142.179 12.44 143.301 10.33L142.418 9.86072C141.301 11.961 140.014 14.3009 138.507 16.7999L139.364 17.3161Z" fill="#BBBBBB"/>
</svg>
