<svg width="129" height="61" viewBox="0 0 129 61" fill="none" xmlns="http://www.w3.org/2000/svg">
<path d="M127.517 60.6274C127.587 60.8944 127.86 61.0539 128.127 60.9835C128.394 60.9131 128.554 60.6396 128.483 60.3726L127.517 60.6274ZM0 4.50001L5.38745 6.57575L4.49137 0.872212L0 4.50001ZM3.89148 4.39474C4.16464 4.35425 4.35325 4.09998 4.31276 3.82683C4.27227 3.55367 4.01801 3.36505 3.74485 3.40554L3.89148 4.39474ZM11.3387 2.41806C11.0643 2.44865 10.8666 2.69592 10.8972 2.97037C10.9278 3.24481 11.1751 3.4425 11.4495 3.41191L11.3387 2.41806ZM19.0383 2.71434C19.3137 2.69452 19.5209 2.45518 19.5011 2.17975C19.4813 1.90432 19.242 1.6971 18.9665 1.71691L19.0383 2.71434ZM26.6185 1.32737C26.3424 1.33547 26.1252 1.5658 26.1333 1.84182C26.1414 2.11785 26.3718 2.33504 26.6478 2.32694L26.6185 1.32737ZM34.2633 2.2765C34.5394 2.28112 34.767 2.06104 34.7716 1.78494C34.7762 1.50883 34.5561 1.28126 34.28 1.27664L34.2633 2.2765ZM41.9314 1.59324C41.6559 1.57484 41.4176 1.78329 41.3992 2.05882C41.3808 2.33435 41.5893 2.57262 41.8648 2.59101L41.9314 1.59324ZM49.427 3.29873C49.7011 3.33198 49.9503 3.1367 49.9835 2.86257C50.0168 2.58844 49.8215 2.33926 49.5474 2.30601L49.427 3.29873ZM57.1477 3.45223C56.876 3.40295 56.6158 3.58326 56.5665 3.85497C56.5172 4.12668 56.6976 4.38689 56.9693 4.43617L57.1477 3.45223ZM64.4165 6.0288C64.6845 6.09517 64.9556 5.93168 65.022 5.66363C65.0883 5.39558 64.9248 5.12448 64.6568 5.05811L64.4165 6.0288ZM72.0197 7.14509C71.7568 7.06073 71.4752 7.2055 71.3909 7.46844C71.3065 7.73139 71.4513 8.01293 71.7142 8.09729L72.0197 7.14509ZM78.8847 10.6858C79.1408 10.7891 79.4321 10.6652 79.5354 10.409C79.6386 10.1529 79.5147 9.86161 79.2586 9.75836L78.8847 10.6858ZM86.2479 12.8901C86.0005 12.7675 85.7005 12.8687 85.5779 13.1161C85.4553 13.3636 85.5565 13.6635 85.804 13.7861L86.2479 12.8901ZM92.4868 17.4397C92.7235 17.582 93.0307 17.5055 93.173 17.2688C93.3152 17.0321 93.2387 16.7249 93.0021 16.5827L92.4868 17.4397ZM99.4135 20.8145C99.1898 20.6527 98.8772 20.7029 98.7154 20.9266C98.5536 21.1504 98.6038 21.463 98.8276 21.6248L99.4135 20.8145ZM104.778 26.3377C104.987 26.5186 105.303 26.4961 105.484 26.2874C105.664 26.0787 105.642 25.7629 105.433 25.5821L104.778 26.3377ZM111.005 30.872C110.813 30.6729 110.497 30.6666 110.298 30.8579C110.099 31.0492 110.092 31.3658 110.284 31.5649L111.005 30.872ZM115.282 37.2832C115.454 37.4995 115.768 37.5358 115.985 37.3642C116.201 37.1926 116.237 36.8781 116.066 36.6617L115.282 37.2832ZM120.545 42.92C120.395 42.6877 120.086 42.6202 119.854 42.7694C119.621 42.9186 119.554 43.2279 119.703 43.4603L120.545 42.92ZM123.454 50.0495C123.577 50.2966 123.877 50.3972 124.124 50.274C124.372 50.1509 124.472 49.8507 124.349 49.6035L123.454 50.0495ZM127.357 56.701C127.267 56.4402 126.982 56.3024 126.721 56.3932C126.46 56.4841 126.322 56.7691 126.413 57.0299L127.357 56.701ZM11.4495 3.41191C14.0295 3.12437 16.5589 2.8927 19.0383 2.71434L18.9665 1.71691C16.4739 1.89623 13.9315 2.12911 11.3387 2.41806L11.4495 3.41191ZM26.6478 2.32694C29.2447 2.25072 31.7829 2.23502 34.2633 2.2765L34.28 1.27664C31.784 1.2349 29.2304 1.25071 26.6185 1.32737L26.6478 2.32694ZM41.8648 2.59101C44.4533 2.76381 46.9736 3.00117 49.427 3.29873L49.5474 2.30601C47.0758 2.00624 44.5376 1.76721 41.9314 1.59324L41.8648 2.59101ZM56.9693 4.43617C59.5313 4.90088 62.0131 5.43374 64.4165 6.0288L64.6568 5.05811C62.2328 4.45792 59.7303 3.92066 57.1477 3.45223L56.9693 4.43617ZM71.7142 8.09729C74.1976 8.89403 76.587 9.75957 78.8847 10.6858L79.2586 9.75836C76.9382 8.82298 74.5261 7.9492 72.0197 7.14509L71.7142 8.09729ZM85.804 13.7861C88.1398 14.9434 90.3663 16.1649 92.4868 17.4397L93.0021 16.5827C90.8584 15.2939 88.6081 14.0594 86.2479 12.8901L85.804 13.7861ZM98.8276 21.6248C100.936 23.1493 102.918 24.7252 104.778 26.3377L105.433 25.5821C103.551 23.9505 101.546 22.3563 99.4135 20.8145L98.8276 21.6248ZM110.284 31.5649C112.096 33.4516 113.76 35.3648 115.282 37.2832L116.066 36.6617C114.524 34.7188 112.84 32.7818 111.005 30.872L110.284 31.5649ZM119.703 43.4603C121.136 45.6928 122.383 47.9006 123.454 50.0495L124.349 49.6035C123.262 47.4221 121.997 45.1828 120.545 42.92L119.703 43.4603ZM126.413 57.0299C126.845 58.2712 127.212 59.4732 127.517 60.6274L128.483 60.3726C128.172 59.1923 127.798 57.9656 127.357 56.701L126.413 57.0299Z" fill="black"/>
</svg>
